<svg xmlns="http://www.w3.org/2000/svg" viewBox="0 0 324.385 324.385"><path d="M245.381 228.832c-18.667-6.681-51.458-11.736-51.458-81.376h-63.462c0 69.64-32.791 74.695-51.458 81.376 0 47.368 68.832 48.824 80.688 53.239v1.537s.922-.188 2.501-.68c1.579.492 2.501.68 2.501.68v-1.537c11.856-4.414 80.688-5.871 80.688-53.239z" fill="#f3d8b6"/><path d="M193.923 147.457h-31.647v135.497c1.526.472 2.417.654 2.417.654v-1.537c11.856-4.415 80.688-5.871 80.688-53.239-18.667-6.68-51.458-11.735-51.458-81.375z" fill="#eec8a2"/><path d="M162.194 169.619c-27.454 0-48.409-23.119-57.799-40.456s-15.888-79.445 4.34-106.897c19.808-26.883 53.459-13.838 53.459-13.838s33.649-13.045 53.458 13.838c20.226 27.452 13.726 89.56 4.335 106.897-9.392 17.337-30.344 40.456-57.793 40.456z" fill="#f3dbc4"/><path d="M215.653 22.266C196.395-3.867 164.065 7.729 162.276 8.397v161.22c27.408-.046 48.329-23.135 57.712-40.454 9.39-17.337 15.891-79.444-4.335-106.897z" fill="#edceae"/><ellipse transform="rotate(-69.249 224.373 101.91)" cx="224.366" cy="101.907" rx="17.187" ry="10.048" fill="#edceae"/><ellipse transform="rotate(69.249 100.017 101.916)" cx="100.014" cy="101.913" rx="17.187" ry="10.048" fill="#f3dbc4"/><path d="M204.186 91.841h-27.689a8.573 8.573 0 0 0-3.431.713l-10.874 3.873-10.874-3.873a8.573 8.573 0 0 0-3.431-.713h-27.688c-5.509 0-7.411 9.474-7.411 9.474 0 12.532 9.191 22.692 23.756 22.692 8.882 0 17.409-9.44 22.649-17.081h6c5.24 7.641 13.768 17.081 22.649 17.081 14.565 0 23.756-10.16 23.756-22.692-.001 0-1.902-9.474-7.412-9.474z" fill="#a7b8d4"/><path d="M204.186 91.841h-27.689a8.573 8.573 0 0 0-3.431.713l-10.791 3.843v10.529h2.917c5.24 7.641 13.768 17.081 22.649 17.081 14.565 0 23.756-10.16 23.756-22.692 0 0-1.901-9.474-7.411-9.474z" fill="#8aa4c2"/><path d="M218.585 18.112c-2.16.019-25.469-13.121-41.382-16.355-18.766-3.814-18.777-.529-26.02 1.516-16.835-12.349-58.504 24.651-58.504 32.295 0 37.112-2.768 40.697 1.715 53.646s8.466 23.407 8.466 23.407 2.988 9.819 2.988-10.697c0-55.843 2.805-3.574 100.009-46.537 19.157-8.467 9.145 19.96 11.137 40.379s2.988 16.854 2.988 16.854 3.984-10.458 8.466-23.407c4.483-12.948 9.489-71.271-9.863-71.101z" fill="#a0756f"/><path d="M218.585 18.112c-2.16.019-25.469-13.121-41.382-16.355C169.889.27 165.43-.135 162.275.041v70.406c11.865-2.755 26.208-7.381 43.581-15.06 19.157-8.467 9.145 19.96 11.137 40.379 1.992 20.419 2.988 16.854 2.988 16.854s3.984-10.458 8.466-23.407c4.484-12.948 9.49-71.271-9.862-71.101z" fill="#8c6762"/><path fill="#b7cae9" d="M105.138 223.924h114.108v100.325H105.138z"/><path fill="#96b3d4" d="M162.276 223.924h56.971v100.325h-56.971z"/><path d="M82.285 212.791c6.042-3.641 19.69-7.43 26.844-9.196 5.953-1.488 3.486 14.829 5.684 35.763 2.277 21.677 19.285 85.027 19.285 85.027H41.681v-40.681c0-30.431 17.377-56.963 40.604-70.913z" fill="#367992"/><path d="M123.096 193.924s-32.452 8.501-39.684 18.626c-7.232 10.124-11.571 23.865-11.571 23.865l28.204 10.124-20.887 20.344 28.15 57.366h26.791s-20.207-72.454-20.67-97.992c-.152-8.367 9.667-32.333 9.667-32.333z" fill="#358ba2"/><path d="M242.099 212.791c-6.042-3.641-19.69-7.43-26.844-9.196-5.953-1.488-3.486 14.829-5.684 35.763-2.277 21.677-19.285 85.027-19.285 85.027h92.418v-40.681c0-30.431-17.377-56.963-40.605-70.913z" fill="#2f697e"/><path d="M201.289 193.924s32.452 8.501 39.684 18.626c7.232 10.124 11.571 23.865 11.571 23.865l-28.204 10.124 20.887 20.344-28.15 57.366h-26.791s20.207-72.454 20.669-97.992c.152-8.367-9.666-32.333-9.666-32.333z" fill="#367992"/><g><ellipse transform="rotate(-69.249 224.373 101.91)" cx="224.366" cy="101.907" rx="17.187" ry="10.048" fill="#edceae"/><ellipse transform="rotate(69.249 100.017 101.916)" cx="100.014" cy="101.913" rx="17.187" ry="10.048" fill="#f3dbc4"/></g></svg>